name analog
datacolumns 19
datarows 68
range 0.39 0.4235
endheader
time	ground_force_vx	ground_force_vy	ground_force_vz	ground_force_px	ground_force_py	ground_force_pz	l_ground_force_vx	l_ground_force_vy	l_ground_force_vz	l_ground_force_px	l_ground_force_py	l_ground_force_pz	ground_torque_x	ground_torque_y	ground_torque_z	l_ground_torque_x	l_ground_torque_y	l_ground_torque_z
0.39	-0.0	-0.0	-0.0	-0.0	-0.0	-0.0	12.941255569458008	3.886154174804688	-636.7697143554688	-0.0	-0.0	-0.0	-0.0	-0.0	-0.0	170247.796875	-19496.73828125	3199.836669921875
0.3905	-0.0	-0.0	-0.0	-0.0	-0.0	-0.0	12.753161430358888	4.342239856719971	-634.3667602539062	-0.0	-0.0	-0.0	-0.0	-0.0	-0.0	169486.90625	-19859.474609375	3254.182861328125
0.391	-0.0	-0.0	-0.0	-0.0	-0.0	-0.0	12.330799102783203	4.384271621704102	-630.6517333984375	-0.0	-0.0	-0.0	-0.0	-0.0	-0.0	168708.234375	-19890.5390625	3328.6943359375
0.3915	-0.0	-0.0	-0.0	-0.0	-0.0	-0.0	11.674753189086914	4.493724822998047	-629.9117431640625	-0.0	-0.0	-0.0	-0.0	-0.0	-0.0	168411.203125	-19831.5078125	3183.4970703125
0.392	-0.0	-0.0	-0.0	-0.0	-0.0	-0.0	11.76616096496582	4.250184535980225	-630.35546875	-0.0	-0.0	-0.0	-0.0	-0.0	-0.0	167856.703125	-19613.23828125	3391.1484375
0.3925	-0.0	-0.0	-0.0	-0.0	-0.0	-0.0	11.233686447143556	4.185372829437256	-629.8267822265625	-0.0	-0.0	-0.0	-0.0	-0.0	-0.0	167858.328125	-19928.162109375	3249.697021484375
0.393	-0.0	-0.0	-0.0	-0.0	-0.0	-0.0	10.368223190307615	4.416084289550781	-628.6450805664062	-0.0	-0.0	-0.0	-0.0	-0.0	-0.0	167737.265625	-19655.974609375	3115.50244140625
0.3935	-0.0	-0.0	-0.0	-0.0	-0.0	-0.0	9.09250545501709	4.062797546386719	-629.9127807617188	-0.0	-0.0	-0.0	-0.0	-0.0	-0.0	168220.609375	-19639.3359375	2758.66259765625
0.394	-0.0	-0.0	-0.0	-0.0	-0.0	-0.0	8.272379875183105	4.294691562652588	-630.829833984375	-0.0	-0.0	-0.0	-0.0	-0.0	-0.0	168472.390625	-19757.23046875	2691.59228515625
0.3945	-0.0	-0.0	-0.0	-0.0	-0.0	-0.0	7.219019412994385	3.797832489013672	-632.7924194335938	-0.0	-0.0	-0.0	-0.0	-0.0	-0.0	168897.28125	-19472.955078125	2464.64599609375
0.395	-0.0	-0.0	-0.0	-0.0	-0.0	-0.0	6.531947135925293	2.7602977752685547	-635.9336547851562	-0.0	-0.0	-0.0	-0.0	-0.0	-0.0	169624.59375	-19205.025390625	2348.8056640625
0.3955	-0.0	-0.0	-0.0	-0.0	-0.0	-0.0	5.75491189956665	2.174323081970215	-637.3349609375	-0.0	-0.0	-0.0	-0.0	-0.0	-0.0	170137.578125	-19094.326171875	2107.552978515625
0.396	-0.0	-0.0	-0.0	-0.0	-0.0	-0.0	4.845036506652832	2.692762851715088	-640.084228515625	-0.0	-0.0	-0.0	-0.0	-0.0	-0.0	171365.234375	-18911.087890625	1661.52001953125
0.3965	-0.0	-0.0	-0.0	-0.0	-0.0	-0.0	4.057851314544678	3.29064679145813	-644.3885498046875	-0.0	-0.0	-0.0	-0.0	-0.0	-0.0	172357.5625	-18728.138671875	1405.57080078125
0.397	-0.0	-0.0	-0.0	-0.0	-0.0	-0.0	3.3282971382141118	3.897603273391724	-644.4434204101562	-0.0	-0.0	-0.0	-0.0	-0.0	-0.0	172843.421875	-18484.98828125	1209.145263671875
0.3975	-0.0	-0.0	-0.0	-0.0	-0.0	-0.0	2.8812050819396973	3.763296365737915	-644.36669921875	-0.0	-0.0	-0.0	-0.0	-0.0	-0.0	173123.3125	-18226.37109375	872.2627563476562
0.398	-0.0	-0.0	-0.0	-0.0	-0.0	-0.0	1.7087714672088623	2.561328887939453	-642.9254760742188	-0.0	-0.0	-0.0	-0.0	-0.0	-0.0	173157.21875	-17682.142578125	684.1388549804688
0.3985	-0.0	-0.0	-0.0	-0.0	-0.0	-0.0	1.2770795822143557	1.5714176893234253	-643.8355712890625	-0.0	-0.0	-0.0	-0.0	-0.0	-0.0	173384.515625	-17531.416015625	402.6021728515625
0.399	-0.0	-0.0	-0.0	-0.0	-0.0	-0.0	0.3485361933708191	0.971538543701172	-642.3926391601562	-0.0	-0.0	-0.0	-0.0	-0.0	-0.0	173161.265625	-17451.46484375	-116.33407592773438
0.3995	-0.0	-0.0	-0.0	-0.0	-0.0	-0.0	-0.1005600243806839	0.6829789876937866	-642.205810546875	-0.0	-0.0	-0.0	-0.0	-0.0	-0.0	173053.828125	-17119.59375	-427.0814208984375
0.4	-0.0	-0.0	-0.0	-0.0	-0.0	-0.0	-0.6739292144775391	0.5707848072052002	-640.48486328125	-0.0	-0.0	-0.0	-0.0	-0.0	-0.0	172957.328125	-17109.19140625	-753.8922119140625
0.4005	-0.0	-0.0	-0.0	-0.0	-0.0	-0.0	-1.3066977262496948	0.3294277787208557	-640.0701904296875	-0.0	-0.0	-0.0	-0.0	-0.0	-0.0	173714.203125	-16745.0234375	-1059.120361328125
0.401	-0.0	-0.0	-0.0	-0.0	-0.0	-0.0	-1.4073132276535034	0.8592040538787842	-642.2965698242188	-0.0	-0.0	-0.0	-0.0	-0.0	-0.0	174223.484375	-16652.462890625	-1586.5106201171875
0.4015	-0.0	-0.0	-0.0	-0.0	-0.0	-0.0	-1.4314948320388794	2.436800003051758	-643.6924438476562	-0.0	-0.0	-0.0	-0.0	-0.0	-0.0	175250.46875	-16785.603515625	-1776.18798828125
0.402	-0.0	-0.0	-0.0	-0.0	-0.0	-0.0	-0.8471700549125671	3.4478890895843506	-646.5328369140625	-0.0	-0.0	-0.0	-0.0	-0.0	-0.0	176478.015625	-16868.91796875	-1907.5029296875
0.4025	-0.0	-0.0	-0.0	-0.0	-0.0	-0.0	-0.4926320016384125	5.162116527557373	-650.4212036132812	-0.0	-0.0	-0.0	-0.0	-0.0	-0.0	177961.3125	-16806.248046875	-1956.865966796875
0.403	-0.0	-0.0	-0.0	-0.0	-0.0	-0.0	0.280849814414978	6.648682594299316	-652.2152099609375	-0.0	-0.0	-0.0	-0.0	-0.0	-0.0	178945.84375	-16889.09765625	-1960.8594970703125
0.4035	-0.0	-0.0	-0.0	-0.0	-0.0	-0.0	0.2146500349044799	6.989768028259277	-652.2640380859375	-0.0	-0.0	-0.0	-0.0	-0.0	-0.0	179163.453125	-16750.57421875	-1816.4945068359373
0.404	-0.0	-0.0	-0.0	-0.0	-0.0	-0.0	-0.2661323547363281	6.827003479003906	-648.423583984375	-0.0	-0.0	-0.0	-0.0	-0.0	-0.0	177980.28125	-16279.12109375	-1812.1322021484373
0.4045	-0.0	-0.0	-0.0	-0.0	-0.0	-0.0	-2.2823119163513184	5.463457584381104	-646.8756103515625	-0.0	-0.0	-0.0	-0.0	-0.0	-0.0	177442.0	-15626.6748046875	-2076.71826171875
0.405	-0.0	-0.0	-0.0	-0.0	-0.0	-0.0	-4.752899169921875	4.176247596740723	-643.9845581054688	-0.0	-0.0	-0.0	-0.0	-0.0	-0.0	176568.28125	-15024.4345703125	-2468.654541015625
0.4055	-0.0	-0.0	-0.0	-0.0	-0.0	-0.0	-6.209754943847656	3.394104480743408	-643.5863037109375	-0.0	-0.0	-0.0	-0.0	-0.0	-0.0	176658.453125	-14498.587890625	-2813.15625
0.406	-0.0	-0.0	-0.0	-0.0	-0.0	-0.0	-7.540416717529297	3.886154174804688	-645.8803100585938	-0.0	-0.0	-0.0	-0.0	-0.0	-0.0	176868.8125	-14198.2470703125	-3085.171142578125
0.40650000000000003	-0.0	-0.0	-0.0	-0.0	-0.0	-0.0	-7.933748722076416	4.226667404174805	-647.5752563476562	-0.0	-0.0	-0.0	-0.0	-0.0	-0.0	177568.03125	-14443.7236328125	-3021.720947265625
0.40700000000000003	-0.0	-0.0	-0.0	-0.0	-0.0	-0.0	-7.1726813316345215	5.538595199584961	-651.9107666015625	-0.0	-0.0	-0.0	-0.0	-0.0	-0.0	178205.625	-14458.8740234375	-2597.39892578125
0.40750000000000003	-0.0	-0.0	-0.0	-0.0	-0.0	-0.0	-5.562840461730957	6.333336353302002	-652.964599609375	-0.0	-0.0	-0.0	-0.0	-0.0	-0.0	178841.9375	-14742.978515625	-2210.4970703125
0.40800000000000003	-0.0	-0.0	-0.0	-0.0	-0.0	-0.0	-4.333788871765137	6.574751853942871	-653.2214965820312	-0.0	-0.0	-0.0	-0.0	-0.0	-0.0	179582.265625	-14567.158203125	-1688.7601318359375
0.40850000000000003	-0.0	-0.0	-0.0	-0.0	-0.0	-0.0	-4.195611476898193	7.141011714935303	-655.7583618164062	-0.0	-0.0	-0.0	-0.0	-0.0	-0.0	179733.421875	-14798.224609375	-1594.265869140625
0.40900000000000003	-0.0	-0.0	-0.0	-0.0	-0.0	-0.0	-3.748666524887085	6.597883224487305	-654.9046630859375	-0.0	-0.0	-0.0	-0.0	-0.0	-0.0	179281.3125	-14683.056640625	-1496.2281494140625
0.40950000000000003	-0.0	-0.0	-0.0	-0.0	-0.0	-0.0	-3.419994115829468	6.659711837768555	-652.8614501953125	-0.0	-0.0	-0.0	-0.0	-0.0	-0.0	178906.96875	-14607.1474609375	-1247.962890625
0.41000000000000003	-0.0	-0.0	-0.0	-0.0	-0.0	-0.0	-4.054069519042969	6.1692633628845215	-649.474365234375	-0.0	-0.0	-0.0	-0.0	-0.0	-0.0	178093.109375	-14293.9423828125	-1327.2943115234375
0.41050000000000003	-0.0	-0.0	-0.0	-0.0	-0.0	-0.0	-4.879093170166016	6.209179401397705	-648.6380004882812	-0.0	-0.0	-0.0	-0.0	-0.0	-0.0	177354.09375	-14232.111328125	-1409.5345458984375
0.41100000000000003	-0.0	-0.0	-0.0	-0.0	-0.0	-0.0	-5.180126667022705	6.787376403808594	-647.0838012695312	-0.0	-0.0	-0.0	-0.0	-0.0	-0.0	176644.828125	-14118.701171875	-1510.3277587890625
0.41150000000000003	-0.0	-0.0	-0.0	-0.0	-0.0	-0.0	-5.260995864868164	6.698977947235107	-646.1199340820312	-0.0	-0.0	-0.0	-0.0	-0.0	-0.0	176166.9375	-14311.9482421875	-1345.97021484375
0.41200000000000003	-0.0	-0.0	-0.0	-0.0	-0.0	-0.0	-4.640159606933594	6.705364227294922	-643.1373291015625	-0.0	-0.0	-0.0	-0.0	-0.0	-0.0	175270.59375	-14390.4228515625	-1172.136962890625
0.41250000000000003	-0.0	-0.0	-0.0	-0.0	-0.0	-0.0	-4.763058662414551	6.726049900054932	-639.7532958984375	-0.0	-0.0	-0.0	-0.0	-0.0	-0.0	174312.515625	-14496.296875	-1069.58447265625
0.41300000000000003	-0.0	-0.0	-0.0	-0.0	-0.0	-0.0	-4.701671600341797	5.5716962814331055	-638.8934326171875	-0.0	-0.0	-0.0	-0.0	-0.0	-0.0	173354.859375	-14524.416015625	-1015.10009765625
0.41350000000000003	-0.0	-0.0	-0.0	-0.0	-0.0	-0.0	-4.122099876403809	4.0765380859375	-636.9068603515625	-0.0	-0.0	-0.0	-0.0	-0.0	-0.0	173328.9375	-14412.7294921875	-802.8252563476562
0.41400000000000003	-0.0	-0.0	-0.0	-0.0	-0.0	-0.0	-3.398754119873047	3.05818247795105	-638.194580078125	-0.0	-0.0	-0.0	-0.0	-0.0	-0.0	173051.671875	-14872.4423828125	-665.3584594726562
0.41450000000000004	-0.0	-0.0	-0.0	-0.0	-0.0	-0.0	-3.5763278007507324	3.598414421081543	-636.9074096679688	-0.0	-0.0	-0.0	-0.0	-0.0	-0.0	172781.328125	-14646.357421875	-510.5823974609375
0.41500000000000004	-0.0	-0.0	-0.0	-0.0	-0.0	-0.0	-4.407516956329346	3.890778064727783	-637.0362548828125	-0.0	-0.0	-0.0	-0.0	-0.0	-0.0	172476.671875	-14808.671875	-913.9142456054688
0.41550000000000004	-0.0	-0.0	-0.0	-0.0	-0.0	-0.0	-5.500068664550781	4.076824188232422	-635.0513916015625	-0.0	-0.0	-0.0	-0.0	-0.0	-0.0	172089.859375	-14802.228515625	-1070.78173828125
0.41600000000000004	-0.0	-0.0	-0.0	-0.0	-0.0	-0.0	-5.280173778533936	4.801310062408447	-634.8839111328125	-0.0	-0.0	-0.0	-0.0	-0.0	-0.0	171896.65625	-14508.53515625	-1243.6910400390625
0.4165	-0.0	-0.0	-0.0	-0.0	-0.0	-0.0	-5.251543998718262	4.638574600219727	-633.3051147460938	-0.0	-0.0	-0.0	-0.0	-0.0	-0.0	171376.390625	-14630.8427734375	-1234.1806640625
0.417	-0.0	-0.0	-0.0	-0.0	-0.0	-0.0	-4.92198657989502	4.105503082275391	-631.6715087890625	-0.0	-0.0	-0.0	-0.0	-0.0	-0.0	171208.828125	-14512.2236328125	-1139.2535400390625
0.4175	-0.0	-0.0	-0.0	-0.0	-0.0	-0.0	-5.219569206237793	3.5496675968170166	-632.6627197265625	-0.0	-0.0	-0.0	-0.0	-0.0	-0.0	171106.046875	-14457.1337890625	-1243.0577392578125
0.418	-0.0	-0.0	-0.0	-0.0	-0.0	-0.0	-5.605329513549805	3.354115724563598	-633.880615234375	-0.0	-0.0	-0.0	-0.0	-0.0	-0.0	171524.578125	-14498.556640625	-1327.65625
0.4185	-0.0	-0.0	-0.0	-0.0	-0.0	-0.0	-6.061347484588623	3.6967287063598633	-635.3417358398438	-0.0	-0.0	-0.0	-0.0	-0.0	-0.0	171617.1875	-14251.470703125	-1570.715087890625
0.419	-0.0	-0.0	-0.0	-0.0	-0.0	-0.0	-6.400450229644775	3.6066837310791016	-636.8525390625	-0.0	-0.0	-0.0	-0.0	-0.0	-0.0	172140.46875	-14104.8740234375	-1674.56591796875
0.4195	-0.0	-0.0	-0.0	-0.0	-0.0	-0.0	-7.008152008056641	3.6074352264404297	-640.9879760742188	-0.0	-0.0	-0.0	-0.0	-0.0	-0.0	172473.359375	-14147.080078125	-2011.4271240234373
0.42	-0.0	-0.0	-0.0	-0.0	-0.0	-0.0	-7.140989780426025	3.473834753036499	-640.1685791015625	-0.0	-0.0	-0.0	-0.0	-0.0	-0.0	172710.953125	-14019.3818359375	-2046.0965576171875
0.4205	-0.0	-0.0	-0.0	-0.0	-0.0	-0.0	-7.200352191925049	3.547619104385376	-643.253662109375	-0.0	-0.0	-0.0	-0.0	-0.0	-0.0	173149.28125	-14419.12109375	-2075.74853515625
0.421	-0.0	-0.0	-0.0	-0.0	-0.0	-0.0	-7.333282947540283	3.429754734039306	-643.6051025390625	-0.0	-0.0	-0.0	-0.0	-0.0	-0.0	173485.734375	-14339.1875	-2085.794677734375
0.4215	-0.0	-0.0	-0.0	-0.0	-0.0	-0.0	-6.68400239944458	3.2538812160491943	-643.4310302734375	-0.0	-0.0	-0.0	-0.0	-0.0	-0.0	173209.953125	-14438.78515625	-2214.0390625
0.422	-0.0	-0.0	-0.0	-0.0	-0.0	-0.0	-6.7420196533203125	3.121108055114746	-643.1914672851562	-0.0	-0.0	-0.0	-0.0	-0.0	-0.0	172930.859375	-14548.484375	-2100.123779296875
0.4225	-0.0	-0.0	-0.0	-0.0	-0.0	-0.0	-5.841525554656982	3.104586362838745	-641.5693359375	-0.0	-0.0	-0.0	-0.0	-0.0	-0.0	172314.125	-14508.8369140625	-2060.259765625
0.423	-0.0	-0.0	-0.0	-0.0	-0.0	-0.0	-5.335718631744385	2.796170949935913	-641.5620727539062	-0.0	-0.0	-0.0	-0.0	-0.0	-0.0	171880.265625	-14694.9833984375	-1832.825439453125
0.4235	-0.0	-0.0	-0.0	-0.0	-0.0	-0.0	-3.637142181396485	2.7228338718414307	-640.3441162109375	-0.0	-0.0	-0.0	-0.0	-0.0	-0.0	171476.015625	-15153.2802734375	-1490.1815185546875
